# xmcd
#
# Track frame offsets:
#	150
#	21482
#	37552
#	53935
#	70905
#	84472
#	96887
#	113260
#	128540
#	143580
#	152845
#	173627
#	189845
#	212630
#
# Disc length: 3076 seconds
#
# Revision: 1
# Processed by: cddbd v1.5PL3 Copyright (c) Steve Scherf et al.
# Submitted via: CDex 1.50Beta5
#
DISCID=a70c020e
DTITLE=幸田聡子 - Hibari Misora on Violin
DYEAR=1900
DGENRE=
TTITLE0=愛燦燦
TTITLE1=東京キッド
TTITLE2=私は街の子
TTITLE3=悲しき口笛
TTITLE4=お祭りマンボ
TTITLE5=小さな水溜り
TTITLE6=港町十三番地
TTITLE7=真赤な太陽
TTITLE8=柔
TTITLE9=あの丘越えて
TTITLE10=リンゴ追分
TTITLE11=津軽のふるさと
TTITLE12=悲しい酒
TTITLE13=川の流れのように
EXTD=
EXTT0=
EXTT1=
EXTT2=
EXTT3=
EXTT4=
EXTT5=
EXTT6=
EXTT7=
EXTT8=
EXTT9=
EXTT10=
EXTT11=
EXTT12=
EXTT13=
PLAYORDER=
